<svg xmlns="http://www.w3.org/2000/svg" viewBox="140 50 120 130">
  <defs>
    <style>
      .st0 { fill: #7d693f; }
    </style>
  </defs>
  <path class="st0" d="M153.17,148.83c.56.75,1.14,1.48,1.76,2.2,1.03,1.24,2.11,2.41,3.24,3.56,1.36,1.4,2.81,2.73,4.32,3.97,1.29,1.07,2.63,2.1,4.01,3.05.85.59,1.71,1.15,2.59,1.7,1.89,1.18,3.85,2.24,5.87,3.19,7.65,3.63,16.19,5.64,25.21,5.64,20.61,0,38.75-10.55,49.31-26.54,1.22-1.85,2.35-3.79,3.37-5.78h0c4.08-8.04,6.38-17.11,6.38-26.73,0-1.88-.09-3.74-.27-5.58-.15-1.69-.38-3.36-.68-5-3.7-20.41-17.88-37.16-36.76-44.48-1.49-.58-3.01-1.1-4.56-1.55-5.32-1.59-10.96-2.42-16.79-2.42-5.43,0-10.7.73-15.7,2.11-1.89.52-3.73,1.13-5.54,1.82-22.12,8.53-37.81,29.99-37.81,55.11,0,11.34,3.19,21.94,8.74,30.94,1.01,1.66,2.12,3.25,3.3,4.79ZM200.18,168.09c-6.64,0-13.02-1.18-18.92-3.35l61.91-17.36c-10.08,12.62-25.59,20.7-42.99,20.7ZM255.17,113.1c0,10.33-2.86,20-7.82,28.27l-72.75,20.41h-.01c-1.43-.76-2.82-1.57-4.17-2.45l84.65-49.53c.07,1.1.1,2.19.1,3.3ZM219.24,61.52c18.44,6.81,32.23,23.23,35.3,43.19l-88.29,51.66c-2.06-1.62-4-3.38-5.79-5.27l58.78-89.58ZM182.88,60.92c5.44-1.81,11.26-2.79,17.31-2.79,5,0,9.84.66,14.44,1.92l-57.36,87.41c-.87-1.08-1.7-2.21-2.49-3.37l28.1-83.18ZM177.2,63.16l-25.59,75.73c-4.09-7.68-6.41-16.47-6.41-25.78,0-22.16,13.11-41.25,32-49.95Z"/>
</svg>
